<svg xmlns="http://www.w3.org/2000/svg" xmlns:xlink="http://www.w3.org/1999/xlink" width="1920" zoomAndPan="magnify" viewBox="0 0 1440 809.999993" height="1080" preserveAspectRatio="xMidYMid meet" version="1.0"><defs><clipPath id="a130ccf4f2"><path d="M 376.941406 81 L 1064 81 L 1064 729 L 376.941406 729 Z M 376.941406 81 " clip-rule="nonzero"/></clipPath><clipPath id="6bc4297394"><path d="M 923.292969 131.824219 L 796.234375 360.53125 L 1063.058594 360.53125 L 1063.058594 449.46875 L 796.234375 449.46875 L 923.292969 678.175781 L 847.058594 729 L 720 487.589844 L 580.234375 729 L 504 678.175781 L 643.765625 449.46875 L 376.941406 449.46875 L 376.941406 360.53125 L 643.765625 360.53125 L 504 131.824219 L 580.234375 81 L 720 322.410156 L 847.058594 81 Z M 923.292969 131.824219 " clip-rule="nonzero"/></clipPath><clipPath id="dc1a8e5d6b"><path d="M 0.941406 0 L 687 0 L 687 648 L 0.941406 648 Z M 0.941406 0 " clip-rule="nonzero"/></clipPath><clipPath id="ee4e17c652"><path d="M 547.292969 50.824219 L 420.234375 279.53125 L 687.058594 279.53125 L 687.058594 368.46875 L 420.234375 368.46875 L 547.292969 597.175781 L 471.058594 648 L 344 406.589844 L 204.234375 648 L 128 597.175781 L 267.765625 368.46875 L 0.941406 368.46875 L 0.941406 279.53125 L 267.765625 279.53125 L 128 50.824219 L 204.234375 0 L 344 241.410156 L 471.058594 0 Z M 547.292969 50.824219 " clip-rule="nonzero"/></clipPath><clipPath id="849d210146"><rect x="0" width="688" y="0" height="648"/></clipPath></defs><g clip-path="url(#a130ccf4f2)"><g clip-path="url(#6bc4297394)"><g transform="matrix(1, 0, 0, 1, 376, 81)"><g clip-path="url(#849d210146)"><g clip-path="url(#dc1a8e5d6b)"><g clip-path="url(#ee4e17c652)"><path fill="#3f3f3f" d="M 0.941406 0 L 686.910156 0 L 686.910156 648 L 0.941406 648 Z M 0.941406 0 " fill-opacity="1" fill-rule="nonzero"/></g></g></g></g></g></g></svg>