<svg xmlns="http://www.w3.org/2000/svg" xmlns:xlink="http://www.w3.org/1999/xlink" width="1920" zoomAndPan="magnify" viewBox="0 0 1440 809.999993" height="1080" preserveAspectRatio="xMidYMid meet" version="1.0"><defs><clipPath id="8d51ddebaa"><path d="M 377 58 L 1063 58 L 1063 755 L 377 755 Z M 377 58 " clip-rule="nonzero"/></clipPath><clipPath id="55d4026fdf"><path d="M 302.734375 184.648438 L 966.109375 0.355469 L 1139.5625 624.710938 L 476.183594 809.003906 Z M 302.734375 184.648438 " clip-rule="nonzero"/></clipPath><clipPath id="f202510d87"><path d="M 842.753906 87.375 L 781.550781 341.746094 L 1038.636719 270.324219 L 1062.445312 356.019531 L 805.355469 427.441406 L 988.996094 613.792969 L 929.148438 683.167969 L 742.105469 484.574219 L 672.058594 754.585938 L 585.003906 726.023438 L 658.449219 468.253906 L 401.363281 539.671875 L 377.554688 453.976562 L 634.644531 382.558594 L 438.761719 199.605469 L 498.609375 130.230469 L 697.894531 325.425781 L 755.699219 58.8125 Z M 842.753906 87.375 " clip-rule="nonzero"/></clipPath><clipPath id="5533ebe6fc"><path d="M 0.519531 0.800781 L 685.480469 0.800781 L 685.480469 696.800781 L 0.519531 696.800781 Z M 0.519531 0.800781 " clip-rule="nonzero"/></clipPath><clipPath id="e6ec81b64a"><path d="M -74.265625 126.648438 L 589.109375 -57.644531 L 762.5625 566.710938 L 99.183594 751.003906 Z M -74.265625 126.648438 " clip-rule="nonzero"/></clipPath><clipPath id="79fb12a671"><path d="M 465.753906 29.375 L 404.550781 283.746094 L 661.636719 212.324219 L 685.445312 298.019531 L 428.355469 369.441406 L 611.996094 555.792969 L 552.148438 625.167969 L 365.105469 426.574219 L 295.058594 696.585938 L 208.003906 668.023438 L 281.449219 410.253906 L 24.363281 481.671875 L 0.554688 395.976562 L 257.644531 324.558594 L 61.761719 141.605469 L 121.609375 72.230469 L 320.894531 267.425781 L 378.699219 0.8125 Z M 465.753906 29.375 " clip-rule="nonzero"/></clipPath><clipPath id="23920cab9e"><rect x="0" width="686" y="0" height="697"/></clipPath></defs><g clip-path="url(#8d51ddebaa)"><g clip-path="url(#55d4026fdf)"><g clip-path="url(#f202510d87)"><g transform="matrix(1, 0, 0, 1, 377, 58)"><g clip-path="url(#23920cab9e)"><g clip-path="url(#5533ebe6fc)"><g clip-path="url(#e6ec81b64a)"><g clip-path="url(#79fb12a671)"><path fill="#3f3f3f" d="M -74.265625 126.648438 L 586.671875 -56.964844 L 760.121094 567.390625 L 99.183594 751.003906 Z M -74.265625 126.648438 " fill-opacity="1" fill-rule="nonzero"/></g></g></g></g></g></g></g></g></svg>